<?xml version="1.0" standalone="no"?><!DOCTYPE svg PUBLIC "-//W3C//DTD SVG 1.1//EN" "http://www.w3.org/Graphics/SVG/1.1/DTD/svg11.dtd"><svg t="1733037618470" class="icon" viewBox="0 0 1150 1024" version="1.1" xmlns="http://www.w3.org/2000/svg" p-id="8299" xmlns:xlink="http://www.w3.org/1999/xlink" width="224.609375" height="200"><path d="M432.894837 914.763355a88.186835 88.186835 0 0 1-18.676494-2.255718 33.664728 33.664728 0 0 1-17.222571-55.591168c14.100914-15.287571 58.017936-66.142799 74.342496-122.717503a83.942663 83.942663 0 0 1-15.052378 1.421851c-21.071191 0-32.478071-10.134697-36.968126-15.373096L220.974892 518.772501a37.417132 37.417132 0 0 1-8.167626-39.83321c1.41116-3.602735 3.356851-8.466962 5.858454-14.378869-66.987357 7.804145-129.441896 59.600146-148.032865 76.384402a33.654038 33.654038 0 0 1-55.591168-18.762019c-3.613426-18.815472-0.983536-51.838764 51.94567-141.051897 28.372877-47.819095 59.407715-91.821642 68.248849-104.169296a33.814397 33.814397 0 0 1 22.64271-13.716052l183.119445-26.020942c29.089148-41.693376 62.12313-79.741254 93.264874-107.429932l0.277956-0.235193C540.987587 37.534729 637.181688 0 766.570131 0c34.904839 0 74.299734 3.207183 127.731398 10.562322a33.718181 33.718181 0 0 1 25.315363 17.864008c6.628178 12.828731 39.298679 81.558657 31.483844 179.88019-4.276244 53.677549-19.937986 106.767114-46.578984 157.814772-32.157352 61.59929-80.564431 120.536618-143.927672 175.187013l-0.609364 0.513149c-8.659393 7.02373-17.008759 14.111604-25.080169 20.953594-8.4242 7.141327-16.410085 13.897792-24.171468 20.151799l-25.732296 184.947538a33.793016 33.793016 0 0 1-13.673289 22.674782c-11.75967 8.445581-53.634786 38.176165-100.20308 66.281777-85.802829 51.934979-119.980707 57.932411-138.229577 57.932411z m52.950588-238.315059a42.922796 42.922796 0 0 1 42.056856 50.384841c-8.488344 47.03868-33.247795 90.634985-56.232604 122.738884 16.837709-7.355139 40.111166-19.243097 71.862275-38.486193 38.218928-23.091716 73.209292-47.327327 89.747664-59.033544l24.9305-179.153229a46.557603 46.557603 0 0 1 17.211881-30.17959c7.750692-6.168481 16.110748-13.256355 24.951882-20.761163 8.199697-6.948896 16.66666-14.132985 25.657462-21.381218 105.623219-91.233659 163.416652-190.987733 171.80878-296.493355 5.516354-69.48896-12.625609-121.413248-21.434671-141.97129-45.060918-5.901216-80.179569-8.648703-109.813938-8.648703-116.720071 0-199.978535 32.63843-296.93167 116.410044-28.661523 25.497103-59.386334 61.150284-86.508409 100.38482a46.290338 46.290338 0 0 1-31.537297 19.456909l-177.76345 25.229837c-12.10177 17.169118-37.417132 53.859289-60.72266 93.211422-13.705361 23.081025-23.316219 41.329895-30.051302 55.644621 7.761382-5.195636 16.15351-10.455416 25.10155-15.554837 44.333956-25.261909 87.085702-38.069259 127.068581-38.069259a42.890724 42.890724 0 0 1 39.074176 60.55161c-3.143039 6.959587-5.751548 13.042543-7.836216 18.07782l190.292843 193.339667c3.85931-0.096215 8.851824-1.197348 14.849256-3.282017a43.243514 43.243514 0 0 1 14.218511-2.416077z m-65.928987 44.376718z m40.399812-34.894148z m-5.013896-3.848619z" fill="#d81e06" p-id="8300"></path><path d="M160.968502 935.139657a42.762437 42.762437 0 0 1-30.233042-73.006171l152.875711-152.875711a42.770989 42.770989 0 1 1 60.508848 60.466086l-152.875711 152.875711a42.623459 42.623459 0 0 1-30.275806 12.540085zM42.762437 814.870303a42.762437 42.762437 0 0 1-30.233043-72.942026l152.875711-152.875711a42.763506 42.763506 0 1 1 60.476776 60.476776l-152.875711 152.875711A42.634149 42.634149 0 0 1 42.762437 814.870303z" fill="#d81e06" p-id="8301"></path><path d="M676.715561 263.23487m-83.237083 0a83.237083 83.237083 0 1 0 166.474166 0 83.237083 83.237083 0 1 0-166.474166 0Z" fill="#d81e06" p-id="8302"></path></svg>